<?xml version="1.0" encoding="utf-8"?>
<svg xmlns="http://www.w3.org/2000/svg" viewBox="57.625 -42.047 392.0718 468.62" width="392.072px" height="468.62px">
  <path fill="#000000" d="M 105.695 -42.047 L 105.685 -42.037 C 99.105 -42.137 91.435 -41.247 84.165 -39.627 C 75.855 -37.787 67.985 -34.937 62.865 -32.067 C 60.295 -30.627 58.445 -29.167 57.625 -28.267 L 83.485 62.273 C 90.705 53.173 98.895 45.673 107.235 40.073 C 116.925 33.633 126.425 29.403 135.125 27.603 C 135.125 14.463 134.825 1.683 133.325 -9.157 C 131.425 -22.207 127.725 -32.187 121.825 -38.067 C 120.525 -39.417 115.545 -41.507 108.435 -41.947 C 107.545 -41.947 106.625 -42.047 105.695 -42.047 Z M 134.725 50.073 C 128.025 50.473 120.525 53.573 113.625 58.773 C 99.945 69.073 89.585 87.473 89.285 98.973 L 135.025 339.273 C 142.625 329.773 154.225 323.573 167.225 323.573 C 178.725 323.573 189.225 328.473 196.725 336.273 C 201.825 335.173 207.225 334.073 213.125 332.973 C 214.625 332.673 216.225 332.473 217.825 332.173 C 204.325 239.673 182.525 132.573 152.625 56.873 C 147.425 52.073 142.325 50.173 137.025 50.073 L 134.725 50.073 Z M 379.025 334.873 C 357.525 334.973 332.725 336.273 308.025 338.573 C 275.025 341.473 242.025 345.973 216.425 350.673 C 212.925 351.273 209.625 351.973 206.425 352.573 C 207.625 356.373 208.225 360.373 208.225 364.573 C 208.225 387.073 189.725 405.573 167.225 405.573 C 161.625 405.573 156.225 404.373 151.325 402.373 C 148.225 411.273 145.925 419.973 144.625 426.573 L 432.225 426.573 C 437.225 426.573 439.925 424.773 442.925 420.173 C 446.025 415.473 448.325 407.773 449.225 398.673 C 451.125 380.573 447.125 357.473 440.125 343.573 C 440.425 344.073 437.325 341.073 429.925 339.173 C 422.525 337.273 411.825 335.873 399.225 335.273 C 392.925 334.973 386.125 334.873 379.025 334.873 Z M 167.225 341.573 C 154.425 341.573 144.225 351.773 144.225 364.573 C 144.225 377.373 154.425 387.573 167.225 387.573 C 180.025 387.573 190.225 377.373 190.225 364.573 C 190.225 351.773 180.025 341.573 167.225 341.573 Z" style="stroke-width: 1;"/>
</svg>