<?xml version="1.0" encoding="utf-8"?>
<svg xmlns="http://www.w3.org/2000/svg" viewBox="210.112 273.465 18 20" width="18px" height="20px">
  <defs>
    <mask id="handle-mask">
      <rect x="209.835" y="272.995" width="20" height="25" fill="white" style="stroke-width: 1;"/>
      <rect x="222.835" y="284.995" width="3.5" height="1.5" rx="0.5" fill="black" style="stroke-width: 1;"/>
    </mask>
  </defs>
  <path id="path-1" d="M 210.112 275.465 L 210.112 291.465 C 210.112 292.57 211.007 293.465 212.112 293.465 L 226.112 293.465 C 227.217 293.465 228.112 292.57 228.112 291.465 L 228.112 282.875 C 228.11 282.346 227.898 281.839 227.522 281.465 L 220.112 274.055 C 219.739 273.68 219.232 273.467 218.702 273.465 L 212.112 273.465 C 211.007 273.465 210.112 274.361 210.112 275.465 Z M 212.112 275.465 L 218.702 275.465 L 224.702 281.465 L 212.112 281.465 L 212.112 275.465 Z" style="stroke-width: 1;" mask="url(#handle-mask)" transform="matrix(0.9999999999999999, 0, 0, 0.9999999999999999, 0, 2.842170943040401e-14)"/>
</svg>