<?xml version="1.0" encoding="utf-8"?>
<svg xmlns="http://www.w3.org/2000/svg" viewBox="168.184 144.549 260.184 282.658" width="260.184px" height="282.658px">
  <ellipse style="stroke: rgb(0, 0, 0); fill: rgba(255, 255, 255, 0); stroke-width: 3px;" cx="298.145" cy="285.684" rx="65.674" ry="64.387"/>
  <ellipse style="stroke: rgb(0, 0, 0); fill: rgba(255, 255, 255, 0); stroke-width: 3px;" cx="298.144" cy="188.304" rx="24.408" ry="23.729"/>
  <rect x="289.702" y="210.872" width="2.03" height="10.962" style="paint-order: stroke; stroke: rgb(0, 0, 0);"/>
  <rect x="304.616" y="210.872" width="2.03" height="10.962" style="paint-order: stroke; stroke: rgb(0, 0, 0);"/>
  <ellipse style="stroke: rgb(0, 0, 0); fill: rgba(255, 255, 255, 0); stroke-width: 3px;" cx="298.144" cy="383.195" rx="24.408" ry="23.729"/>
  <rect x="289.702" y="349.602" width="2.03" height="10.962" style="paint-order: stroke; stroke: rgb(0, 0, 0);"/>
  <rect x="304.616" y="349.602" width="2.03" height="10.962" style="paint-order: stroke; stroke: rgb(0, 0, 0);"/>
  <rect x="321.622" y="194.803" width="36.165" height="2.128" style="paint-order: stroke; stroke: rgb(0, 0, 0);"/>
  <rect x="321.622" y="180.333" width="36.165" height="2.128" style="paint-order: stroke; stroke: rgb(0, 0, 0);"/>
  <rect x="238.491" y="194.803" width="36.165" height="2.128" style="paint-order: stroke; stroke: rgb(0, 0, 0);"/>
  <rect x="238.491" y="180.333" width="36.165" height="2.128" style="paint-order: stroke; stroke: rgb(0, 0, 0);"/>
  <rect x="321.622" y="389.246" width="36.165" height="2.128" style="paint-order: stroke; stroke: rgb(0, 0, 0);"/>
  <rect x="321.622" y="374.776" width="36.165" height="2.128" style="paint-order: stroke; stroke: rgb(0, 0, 0);"/>
  <rect x="238.491" y="389.246" width="36.165" height="2.128" style="paint-order: stroke; stroke: rgb(0, 0, 0);"/>
  <rect x="238.491" y="374.776" width="36.165" height="2.128" style="paint-order: stroke; stroke: rgb(0, 0, 0);"/>
  <path d="M 303.073 256.333 Z M 303.073 256.333 L 298.441 280.677 L 315.224 280.732 L 292.378 313.732 L 297.012 286.951 L 280.229 286.892 L 303.073 256.333 Z M 303.075 252.229 C 302.964 252.229 302.854 252.233 302.745 252.241 C 302.02 252.299 301.539 252.543 300.971 252.925 C 300.654 253.135 300.365 253.393 300.11 253.691 C 300.034 253.779 299.965 253.872 299.899 253.966 L 276.888 284.42 C 275.981 285.666 275.845 287.309 276.543 288.682 C 277.241 290.056 278.65 290.926 280.196 290.939 L 292.049 291.025 L 288.323 312.982 C 287.97 314.869 288.976 316.75 290.746 317.508 C 291.273 317.734 291.828 317.843 292.374 317.843 C 293.665 317.843 294.725 317.239 295.522 316.148 L 318.559 283.149 C 319.466 281.902 319.6 280.258 318.904 278.886 C 318.205 277.513 316.797 276.642 315.251 276.632 L 303.398 276.611 L 307.085 257.307 C 307.163 256.997 307.202 256.674 307.202 256.342 C 307.202 254.12 305.434 252.309 303.221 252.237 C 303.172 252.235 303.124 252.235 303.075 252.235 L 303.075 252.229 Z" style="stroke-width: 447.707;"/>
  <g id="_x32_" style="" transform="matrix(0.10338199138641357, 0, 0, 0.10338199138641357, 352.73004150390625, 335.4447937011719)">
    <g transform="matrix(1, 0, 0, 1, 106.132179, 95.613297)">
      <path d="M -159.63 292.828 L -63.625 292.828 M -159.63 436.798 L -63.625 436.798 M -63.625 196.848 L -63.625 532.778 C -63.625 692.738 16.375 772.718 176.275 772.718 L 368.255 772.718 C 528.215 772.718 608.195 692.738 608.195 532.778 L 608.195 196.848 C 608.195 36.888 528.215 -43.082 368.255 -43.082 L 176.275 -43.082 C 16.375 -43.082 -63.625 36.888 -63.625 196.848" stroke="black" stroke-linecap="round" style="fill: none; stroke-width: 24.1822px;"/>
      <rect x="80.275" y="74.236" width="383.911" height="575.867" rx="102.976" ry="102.976" stroke="black" style="fill: none; stroke-width: 24.1822px;"/>
      <path d="M -1873.9 292.828 L -1777.8 292.828 M -1873.9 436.798 L -1777.8 436.798 M -1777.8 196.848 L -1777.8 532.778 C -1777.8 692.738 -1697.8 772.718 -1537.9 772.718 L -1346 772.718 C -1186 772.718 -1106 692.738 -1106 532.778 L -1106 196.848 C -1106 36.888 -1186 -43.082 -1346 -43.082 L -1537.9 -43.082 C -1697.8 -43.082 -1777.8 36.888 -1777.8 196.848" stroke="black" stroke-linecap="round" style="fill: none; transform-box: fill-box; transform-origin: 50% 50%; stroke-width: 24.1822px;" transform="matrix(-1, 0, 0, -1, -0.000093, 0.000109)"/>
      <rect x="1345.98" y="-655.4" width="383.911" height="575.867" rx="102.976" ry="102.976" stroke="black" style="fill: none; transform-box: fill-box; transform-origin: 50% 50%; stroke-width: 24.1822px;" transform="matrix(-1, 0, 0, -1, -3075.871033, 734.933044)"/>
    </g>
  </g>
  <g id="group-1" style="" transform="matrix(0.10338199138641357, 0, 0, 0.10338199138641357, 352.73004150390625, 140.9931640625)">
    <g transform="matrix(1, 0, 0, 1, 106.132179, 95.613297)">
      <path d="M -159.63 292.828 L -63.625 292.828 M -159.63 436.798 L -63.625 436.798 M -63.625 196.848 L -63.625 532.778 C -63.625 692.738 16.375 772.718 176.275 772.718 L 368.255 772.718 C 528.215 772.718 608.195 692.738 608.195 532.778 L 608.195 196.848 C 608.195 36.888 528.215 -43.082 368.255 -43.082 L 176.275 -43.082 C 16.375 -43.082 -63.625 36.888 -63.625 196.848" stroke="black" stroke-linecap="round" style="fill: none; stroke-width: 24.1822px;"/>
      <rect x="80.275" y="74.236" width="383.911" height="575.867" rx="102.976" ry="102.976" stroke="black" style="fill: none; stroke-width: 24.1822px;"/>
      <path d="M -1873.9 292.828 L -1777.8 292.828 M -1873.9 436.798 L -1777.8 436.798 M -1777.8 196.848 L -1777.8 532.778 C -1777.8 692.738 -1697.8 772.718 -1537.9 772.718 L -1346 772.718 C -1186 772.718 -1106 692.738 -1106 532.778 L -1106 196.848 C -1106 36.888 -1186 -43.082 -1346 -43.082 L -1537.9 -43.082 C -1697.8 -43.082 -1777.8 36.888 -1777.8 196.848" stroke="black" stroke-linecap="round" style="fill: none; transform-box: fill-box; transform-origin: 50% 50%; stroke-width: 24.1822px;" transform="matrix(-1, 0, 0, -1, -0.000093, 0.000109)"/>
      <rect x="1345.98" y="-655.4" width="383.911" height="575.867" rx="102.976" ry="102.976" stroke="black" style="fill: none; transform-box: fill-box; transform-origin: 50% 50%; stroke-width: 24.1822px;" transform="matrix(-1, 0, 0, -1, -3075.871033, 734.933044)"/>
    </g>
  </g>
  <rect x="168.184" y="144.549" width="260.184" height="282.658" style="fill: rgba(255, 255, 255, 0);"/>
</svg>