<?xml version="1.0" encoding="utf-8"?>
<svg xmlns="http://www.w3.org/2000/svg" viewBox="311.421 109.14 21.5 20.75" width="21.5px" height="20.75px">
  <path d="M 332.511 116.47 L 330.511 115.47 C 330.141 115.29 329.681 115.43 329.501 115.8 C 329.311 116.18 329.461 116.63 329.831 116.81 L 331.421 117.6 L 331.421 122.39 L 327.671 122.4 L 327.671 112.14 C 327.671 110.14 326.331 109.14 324.671 109.14 L 316.671 109.14 C 315.011 109.14 313.671 110.14 313.671 112.14 L 313.671 128.39 L 312.171 128.39 C 311.761 128.39 311.421 128.73 311.421 129.14 C 311.421 129.55 311.761 129.89 312.171 129.89 L 329.171 129.89 C 329.581 129.89 329.921 129.55 329.921 129.14 C 329.921 128.73 329.581 128.39 329.171 128.39 L 327.671 128.39 L 327.671 123.9 L 332.171 123.89 C 332.591 123.89 332.921 123.55 332.921 123.14 L 332.921 117.14 C 332.921 116.86 332.761 116.6 332.511 116.47 Z M 316.171 114.03 C 316.171 112.64 317.021 112.14 318.061 112.14 L 323.291 112.14 C 324.321 112.14 325.171 112.64 325.171 114.03 L 325.171 115.26 C 325.171 116.64 324.321 117.14 323.281 117.14 L 318.061 117.14 C 317.021 117.14 316.171 116.64 316.171 115.25 L 316.171 114.03 Z M 316.671 119.39 L 319.671 119.39 C 320.081 119.39 320.421 119.73 320.421 120.14 C 320.421 120.55 320.081 120.89 319.671 120.89 L 316.671 120.89 C 316.261 120.89 315.921 120.55 315.921 120.14 C 315.921 119.73 316.261 119.39 316.671 119.39 Z" style="stroke-width: 1;"/>
</svg>