<?xml version="1.0" encoding="utf-8"?>
<svg xmlns="http://www.w3.org/2000/svg" viewBox="190.139 134.238 212.368 114.256" width="212.368px" height="114.256px">
  <rect x="190.139" y="134.238" width="212.368" height="114.256" style="paint-order: fill; fill: rgba(0, 0, 0, 0);" transform="matrix(1, 0, 0, 1, -1.4210854715202004e-14, 0)"/>
  <g id="Capa_1" transform="matrix(0.5014489889144897, 0, 0, 0.5030160546302795, 182.12017822265625, 79.1845703125)" style="">
    <g transform="matrix(1, 0, 0, 1, -5.263019, -194.888916)">
      <path d="M 212.143 465.007 C 213.545 465.546 215.025 464.38 214.166 463.415 C 209.506 458.179 205.093 449.367 212.124 438.019 C 223.848 419.094 230.982 409.293 230.982 409.293 C 230.982 409.293 234.776 420.731 245.062 430.901 C 254.962 440.69 260.381 453 251.645 463.255 C 250.825 464.217 252.271 465.353 253.664 464.838 C 264.478 460.844 276.606 452.833 277.974 436.89 C 278.479 432.019 277.722 425.198 273.939 416.592 C 269.073 405.684 263.092 400.594 259.632 398.408 C 258.597 397.754 256.987 398.334 257.072 399.325 C 258.08 411.095 251.948 414.081 248.457 407.35 C 247.063 404.662 246.25 400.012 246.25 394.349 C 246.25 384.921 242.462 375.216 234.11 367.33 C 231.939 365.279 229.397 363.363 226.482 361.729 C 225.426 361.137 223.896 361.732 223.993 362.694 C 224.634 369.085 224.053 387.402 201.797 409.284 C 181.618 429.583 189.438 445.172 192.212 449.394 C 197.517 457.483 204.916 462.233 212.143 465.007 Z" style="fill: rgb(255, 0, 0);"/>
    </g>
  </g>
  <path d="M 196.339 240.481 C 196.339 163.501 279.673 115.388 346.339 153.878 C 377.279 171.741 396.339 204.754 396.339 240.481" fill="none" stroke="black" stroke-width="12" style="stroke-width: 12;" transform="matrix(1, 0, 0, 1, -1.4210854715202004e-14, 0)"/>
  <path d="M 206.339 240.481 C 206.339 171.199 281.339 127.897 341.339 162.538 C 369.185 178.615 386.339 208.327 386.339 240.481" stroke="black" stroke-width="2" style="stroke-width: 2; fill: rgba(255, 255, 255, 0);" transform="matrix(1, 0, 0, 1, -1.4210854715202004e-14, 0)"/>
  <g stroke="black" stroke-width="3" transform="matrix(1, 0, 0, 1, 96.33920288085938, -79.51924133300781)" style="">
    <line x1="110" y1="318.517" x2="125" y2="318.517"/>
    <line x1="120" y1="270" x2="135" y2="280"/>
    <line x1="150" y1="230" x2="160" y2="245"/>
    <line x1="200" y1="214.167" x2="200" y2="230" style=""/>
    <line x1="250" y1="230" x2="240" y2="245"/>
    <line x1="280" y1="270" x2="265" y2="280"/>
    <line x1="290" y1="318.475" x2="275" y2="318.475"/>
  </g>
  <text x="223.062" y="235.481" font-family="Arial, sans-serif" font-size="14" font-weight="bold" fill="black" style="white-space: pre; stroke-width: 1; font-size: 14px;" transform="matrix(1, 0, 0, 1, -1.4210854715202004e-14, 0)">0</text>
  <line x1="296.339" y1="240.481" x2="371.339" y2="200.481" stroke="black" stroke-width="5" stroke-linecap="round" style="stroke-width: 5;" transform="matrix(1, 0, 0, 1, -1.4210854715202004e-14, 0)"/>
  <circle cx="296.339" cy="240.481" r="8" fill="black" style="stroke-width: 1;" transform="matrix(1, 0, 0, 1, -1.4210854715202004e-14, 0)"/>
  <text x="345.454" y="235.481" font-family="Arial, sans-serif" font-size="14" font-weight="bold" fill="black" style="white-space: pre; stroke-width: 1; font-size: 14px;" transform="matrix(1, 0, 0, 1, -1.4210854715202004e-14, 0)">100</text>
</svg>