<svg width="19" height="18" viewBox="0 0 19 18" fill="none" xmlns="http://www.w3.org/2000/svg">
<path fill-rule="evenodd" clip-rule="evenodd" d="M8.28432 1.37933C8.34188 1.19679 8.45614 1.03736 8.61049 0.924188C8.76484 0.811017 8.95126 0.75 9.14265 0.75C9.33405 0.75 9.52046 0.811017 9.67481 0.924188C9.82917 1.03736 9.94342 1.19679 10.001 1.37933L11.551 6.14599H16.551C16.7492 6.1385 16.9445 6.19611 17.1069 6.31002C17.2693 6.42394 17.39 6.5879 17.4504 6.77684C17.5109 6.96578 17.5078 7.16933 17.4417 7.35637C17.3756 7.54342 17.2501 7.70367 17.0843 7.81266L13.026 10.7543L14.576 15.5293C14.6373 15.7112 14.6388 15.9079 14.5804 16.0908C14.522 16.2736 14.4066 16.4329 14.2512 16.5456C14.0957 16.6582 13.9084 16.7182 13.7164 16.7167C13.5245 16.7153 13.3381 16.6526 13.1843 16.5377L9.11765 13.5627L5.05932 16.5127C4.90558 16.6276 4.71912 16.6903 4.52719 16.6917C4.33525 16.6932 4.14789 16.6332 3.99246 16.5206C3.83703 16.4079 3.72168 16.2486 3.66324 16.0658C3.60481 15.8829 3.60635 15.6862 3.66765 15.5043L5.21765 10.7293L1.15932 7.78766C0.993554 7.67867 0.868028 7.51842 0.801919 7.33137C0.73581 7.14433 0.732752 6.94078 0.793215 6.75184C0.853677 6.5629 0.974334 6.39894 1.13675 6.28502C1.29917 6.17111 1.49441 6.1135 1.69265 6.12099H6.69265L8.28432 1.37933Z" stroke="#90A3BF" stroke-width="1.5" stroke-linecap="round" stroke-linejoin="round"/>
</svg>
