<?xml version="1.0" encoding="utf-8"?>
<svg xmlns="http://www.w3.org/2000/svg" viewBox="186.409 252.276 20.7503 20.75" width="20.7503px" height="20.75px">
  <path d="M 190.409 254.276 C 190.409 255.38 189.514 256.276 188.409 256.276 C 187.305 256.276 186.409 255.38 186.409 254.276 C 186.409 253.171 187.305 252.276 188.409 252.276 C 189.514 252.276 190.409 253.171 190.409 254.276 Z" stroke-width="1.5" style="stroke-width: 1.5; fill: rgb(255, 255, 255); stroke: rgb(0, 0, 0);"/>
  <path d="M 190.409 270.276 C 190.409 271.38 189.514 272.276 188.409 272.276 C 187.305 272.276 186.409 271.38 186.409 270.276 C 186.409 269.171 187.305 268.276 188.409 268.276 C 189.514 268.276 190.409 269.171 190.409 270.276 Z" stroke-width="1.5" style="stroke-width: 1.5; fill: rgb(255, 255, 255); stroke: rgb(0, 0, 0);"/>
  <path d="M 198.409 270.276 C 198.409 271.38 197.514 272.276 196.409 272.276 C 195.305 272.276 194.409 271.38 194.409 270.276 C 194.409 269.171 195.305 268.276 196.409 268.276 C 197.514 268.276 198.409 269.171 198.409 270.276 Z" stroke-width="1.5" style="stroke-width: 1.5; fill: rgb(255, 255, 255); stroke: rgb(0, 0, 0);"/>
  <path d="M 198.409 254.276 C 198.409 255.38 197.514 256.276 196.409 256.276 C 195.305 256.276 194.409 255.38 194.409 254.276 C 194.409 253.171 195.305 252.276 196.409 252.276 C 197.514 252.276 198.409 253.171 198.409 254.276 Z" stroke-width="1.5" style="stroke-width: 1.5; fill: rgb(255, 255, 255); stroke: rgb(0, 0, 0);"/>
  <path d="M 206.409 254.276 C 206.409 255.38 205.514 256.276 204.409 256.276 C 203.305 256.276 202.409 255.38 202.409 254.276 C 202.409 253.171 203.305 252.276 204.409 252.276 C 205.514 252.276 206.409 253.171 206.409 254.276 Z" stroke-width="1.5" style="stroke-width: 1.5; fill: rgb(255, 255, 255); stroke: rgb(0, 0, 0);"/>
  <path d="M 204.409 256.276 L 204.409 258.276 C 204.409 260.161 204.409 261.104 203.824 261.69 C 203.238 262.276 202.295 262.276 200.409 262.276 L 194.409 262.276 M 188.409 262.276 L 190.409 262.276" stroke-width="1.5" stroke-linecap="round" style="stroke-width: 1.5; fill: rgb(255, 255, 255); stroke: rgb(0, 0, 0);"/>
  <path d="M 202.409 265.276 L 202.409 264.526 C 201.995 264.526 201.659 264.861 201.659 265.276 L 202.409 265.276 Z M 201.659 272.276 C 201.659 272.69 201.995 273.026 202.409 273.026 C 202.824 273.026 203.159 272.69 203.159 272.276 L 201.659 272.276 Z M 205.77 272.667 C 205.986 273.02 206.448 273.131 206.801 272.915 C 207.154 272.699 207.265 272.237 207.049 271.884 L 205.77 272.667 Z M 202.409 266.026 L 204.695 266.026 L 204.695 264.526 L 202.409 264.526 L 202.409 266.026 Z M 203.159 268.776 L 203.159 265.276 L 201.659 265.276 L 201.659 268.776 L 203.159 268.776 Z M 205.659 267.026 C 205.659 267.592 205.213 268.026 204.695 268.026 L 204.695 269.526 C 206.071 269.526 207.159 268.392 207.159 267.026 L 205.659 267.026 Z M 204.695 266.026 C 205.213 266.026 205.659 266.459 205.659 267.026 L 207.159 267.026 C 207.159 265.659 206.071 264.526 204.695 264.526 L 204.695 266.026 Z M 204.695 268.026 L 204.266 268.026 L 204.266 269.526 L 204.695 269.526 L 204.695 268.026 Z M 204.266 268.026 L 202.409 268.026 L 202.409 269.526 L 204.266 269.526 L 204.266 268.026 Z M 203.627 269.167 L 205.77 272.667 L 207.049 271.884 L 204.906 268.384 L 203.627 269.167 Z M 201.659 268.776 L 201.659 272.276 L 203.159 272.276 L 203.159 268.776 L 201.659 268.776 Z" style="stroke-width: 1;"/>
  <path d="M 196.409 256.276 L 196.409 263.276 M 196.409 268.276 L 196.409 266.276" stroke-width="1.5" stroke-linecap="round" style="stroke-width: 1.5; stroke: rgb(0, 0, 0);"/>
  <path d="M 188.409 268.276 L 188.409 261.276 M 188.409 256.276 L 188.409 258.276" stroke-width="1.5" stroke-linecap="round" style="stroke-width: 1.5; stroke: rgb(0, 0, 0);"/>
</svg>